<?xml version="1.0" encoding="UTF-8" standalone="no"?>
<svg
   xmlns:dc="http://purl.org/dc/elements/1.1/"
   xmlns:cc="http://creativecommons.org/ns#"
   xmlns:rdf="http://www.w3.org/1999/02/22-rdf-syntax-ns#"
   xmlns:svg="http://www.w3.org/2000/svg"
   xmlns="http://www.w3.org/2000/svg"
   xmlns:sodipodi="http://sodipodi.sourceforge.net/DTD/sodipodi-0.dtd"
   xmlns:inkscape="http://www.inkscape.org/namespaces/inkscape"
   width="39.987492mm"
   height="111.05972mm"
   viewBox="0 0 39.987492 111.05972"
   version="1.1"
   id="svg8"
   inkscape:version="1.0.2 (e86c870879, 2021-01-15, custom)"
   sodipodi:docname="Wall Slice.svg">
  <defs
     id="defs2">
    <inkscape:path-effect
       effect="spiro"
       id="path-effect964"
       is_visible="true"
       lpeversion="1" />
    <inkscape:path-effect
       effect="spiro"
       id="path-effect952"
       is_visible="true"
       lpeversion="1" />
    <inkscape:path-effect
       effect="spiro"
       id="path-effect940"
       is_visible="true"
       lpeversion="1" />
    <inkscape:path-effect
       effect="spiro"
       id="path-effect928"
       is_visible="true"
       lpeversion="1" />
    <inkscape:path-effect
       effect="spiro"
       id="path-effect916"
       is_visible="true"
       lpeversion="1" />
    <inkscape:path-effect
       effect="spiro"
       id="path-effect904"
       is_visible="true"
       lpeversion="1" />
    <inkscape:path-effect
       effect="spiro"
       id="path-effect892"
       is_visible="true"
       lpeversion="1" />
    <inkscape:path-effect
       effect="spiro"
       id="path-effect851"
       is_visible="true"
       lpeversion="1" />
  </defs>
  <sodipodi:namedview
     id="base"
     pagecolor="#ffffff"
     bordercolor="#666666"
     borderopacity="1.0"
     inkscape:pageopacity="0.0"
     inkscape:pageshadow="2"
     inkscape:zoom="2.6602502"
     inkscape:cx="68.84146"
     inkscape:cy="152.18469"
     inkscape:document-units="mm"
     inkscape:current-layer="layer1"
     inkscape:document-rotation="0"
     showgrid="false"
     inkscape:window-width="1920"
     inkscape:window-height="1057"
     inkscape:window-x="-8"
     inkscape:window-y="113"
     inkscape:window-maximized="1" />
  <metadata
     id="metadata5">
    <rdf:RDF>
      <cc:Work
         rdf:about="">
        <dc:format>image/svg+xml</dc:format>
        <dc:type
           rdf:resource="http://purl.org/dc/dcmitype/StillImage" />
        <dc:title />
      </cc:Work>
    </rdf:RDF>
  </metadata>
  <g
     inkscape:label="Layer 1"
     inkscape:groupmode="layer"
     id="layer1"
     transform="translate(-71.332888,-90.381709)">
    <path
       style="fill:none;stroke:#000000;stroke-width:0.0452345px;stroke-linecap:butt;stroke-linejoin:miter;stroke-opacity:1"
       d="m 90.840353,192.40478 c 0.252508,-0.20369 0.594431,-0.29217 0.914049,-0.23654 0.319617,0.0556 0.611527,0.25446 0.78035,0.5315 0.02483,0.0408 0.04711,0.0831 0.06647,0.12668 0.135109,0.30445 0.119106,0.66418 -0.0076,0.97223 -0.09421,0.22904 -0.24882,0.43483 -0.450565,0.57848 -0.110092,0.0784 -0.232549,0.13763 -0.356346,0.19185 -0.161863,0.0709 -0.327574,0.13405 -0.482506,0.21902 -0.405406,0.22235 -0.717944,0.58382 -0.971324,0.97059 -0.584664,0.89246 -0.893266,1.94624 -1.003413,3.00746 -0.01573,0.15155 -0.02757,0.30347 -0.03938,0.45537 -0.04338,0.55801 -0.08634,1.11608 -0.137013,1.67348 -0.0092,0.101 -0.01865,0.20223 -0.0392,0.30155 -0.0071,0.0345 -0.01567,0.069 -0.02914,0.10155 -0.01223,0.0296 -0.02877,0.0579 -0.05183,0.0801 -0.02306,0.0222 -0.05311,0.0381 -0.08505,0.0404 -0.03564,0.003 -0.07047,-0.0115 -0.101551,-0.0291 -0.048,-0.0272 -0.09049,-0.0635 -0.128356,-0.10362 -0.05431,-0.0576 -0.09931,-0.12316 -0.145781,-0.18724 -0.213837,-0.29487 -0.46282,-0.56295 -0.726819,-0.81391 -0.198841,-0.18902 -0.409197,-0.37057 -0.653186,-0.49601 -0.210837,-0.1084 -0.442648,-0.17242 -0.677413,-0.2054 -0.296963,-0.0417 -0.599469,-0.0345 -0.896987,0.003 -0.142646,0.018 -0.284569,0.043 -0.423581,0.0797 -0.242088,0.0639 -0.473235,0.16278 -0.705745,0.25569 -0.166134,0.0664 -0.333567,0.12995 -0.504629,0.18235 -0.07489,0.0229 -0.152114,0.0439 -0.230317,0.0396 -0.02695,-0.001 -0.05386,-0.006 -0.07922,-0.0153 -0.02536,-0.009 -0.04917,-0.0233 -0.06827,-0.0423 -0.03285,-0.0328 -0.05029,-0.0804 -0.04651,-0.12664 0.0031,-0.0378 0.01936,-0.0732 0.03663,-0.107 0.01698,-0.0332 0.03519,-0.0659 0.05501,-0.0975 0.04766,-0.0761 0.104419,-0.146 0.16221,-0.21469 0.267674,-0.31817 0.560584,-0.61412 0.836899,-0.92481 0.260735,-0.29318 0.506591,-0.59938 0.742229,-0.91308 0.102789,-0.13684 0.203994,-0.27567 0.285467,-0.42618 0.09701,-0.17921 0.164973,-0.37328 0.211408,-0.5717 0.106547,-0.45529 0.09877,-0.93991 -0.0447,-1.38494 -0.02848,-0.0883 -0.06215,-0.17493 -0.0929,-0.26252 -0.04759,-0.13554 -0.08823,-0.27351 -0.122413,-0.41304 -0.03045,-0.12428 -0.05589,-0.25084 -0.05615,-0.37879 -5.74e-4,-0.28684 0.129336,-0.56616 0.328956,-0.77214 0.08843,-0.0913 0.1935,-0.17112 0.315906,-0.20524 0.107023,-0.0298 0.221572,-0.023 0.329837,0.002 0.102139,0.0235 0.199941,0.0626 0.297024,0.10213 0.171962,0.07 0.343454,0.1419 0.520542,0.19766 0.182687,0.0575 0.370541,0.0976 0.559709,0.12756 0.338174,0.0536 0.682039,0.0752 1.023703,0.0528 0.300016,-0.0196 0.602054,-0.0745 0.871889,-0.20715 0.1045,-0.0514 0.204282,-0.11473 0.285959,-0.19771 0.08813,-0.0895 0.152703,-0.19918 0.213688,-0.30902 0.07403,-0.13334 0.144678,-0.26962 0.238653,-0.38973 0.07928,-0.10133 0.17459,-0.19008 0.281303,-0.26195 z"
       id="1"
       inkscape:path-effect="#path-effect851"
       inkscape:original-d="m 90.840353,192.40478 c 0.09383,-0.0874 1.129536,0.19666 1.694399,0.29496 0.56486,0.0983 0.04425,0.0845 0.06647,0.12668 0.02222,0.0422 -0.0051,0.64817 -0.0076,0.97223 -0.0025,0.32404 -0.300435,0.38567 -0.450565,0.57848 -0.150126,0.19281 -0.237626,0.12792 -0.356346,0.19185 -0.118721,0.0639 -0.321731,0.14604 -0.482506,0.21902 -0.160774,0.073 -0.647611,0.64708 -0.971324,0.97059 -0.323713,0.3235 -0.669002,2.00499 -1.003413,3.00746 -0.334411,1.00247 -0.02631,0.3036 -0.03938,0.45537 -0.01306,0.15176 -0.0914,1.11567 -0.137013,1.67348 -0.04561,0.55781 -0.0262,0.20106 -0.0392,0.30155 -0.013,0.10052 -0.01949,0.0677 -0.02914,0.10155 -0.0097,0.0338 -0.09132,0.0804 -0.136877,0.12049 -0.04556,0.0402 -0.06775,-0.0194 -0.101551,-0.0291 -0.03378,-0.01 -0.08564,-0.0691 -0.128356,-0.10362 -0.04271,-0.0345 -0.09725,-0.12481 -0.145781,-0.18724 -0.04853,-0.0624 -0.484608,-0.54259 -0.726819,-0.81391 -0.242211,-0.27132 -0.435519,-0.33066 -0.653186,-0.49601 -0.217675,-0.16535 -0.45167,-0.13692 -0.677413,-0.2054 -0.225745,-0.0685 -0.598051,0.002 -0.896987,0.003 -0.298935,9.7e-4 -0.282453,0.0531 -0.423581,0.0797 -0.141134,0.0265 -0.470558,0.17047 -0.705745,0.25569 -0.235187,0.0852 -0.336481,0.12158 -0.504629,0.18235 -0.168149,0.0607 -0.153607,0.0264 -0.230317,0.0396 -0.07668,0.0136 -0.0984,-0.0384 -0.147496,-0.0576 -0.0491,-0.0192 -0.03107,-0.0845 -0.04651,-0.12664 -0.01545,-0.0422 0.02435,-0.0713 0.03663,-0.107 0.01227,-0.0356 0.03663,-0.065 0.05501,-0.0975 0.01839,-0.0326 0.108079,-0.14311 0.16221,-0.21469 0.05412,-0.0716 0.557873,-0.61652 0.836899,-0.92481 0.279028,-0.30829 0.49476,-0.60871 0.742229,-0.91308 0.247471,-0.30438 0.190253,-0.2841 0.285467,-0.42618 0.09521,-0.14208 0.140879,-0.38111 0.211408,-0.5717 0.07053,-0.19059 -0.02987,-0.92327 -0.0447,-1.38494 -0.01488,-0.46166 -0.06199,-0.17499 -0.0929,-0.26252 -0.0309,-0.0876 -0.08167,-0.27534 -0.122413,-0.41304 -0.04074,-0.13769 -0.03749,-0.25251 -0.05615,-0.37879 -0.01865,-0.12628 0.219246,-0.51474 0.328956,-0.77214 0.109712,-0.2574 0.210543,-0.13681 0.315906,-0.20524 0.105364,-0.0684 0.219832,0.002 0.329837,0.002 0.110009,8.6e-4 0.197938,0.0681 0.297024,0.10213 0.09907,0.034 0.233293,0.10059 0.520542,0.19766 0.28725,0.0971 -0.243274,0.0601 0.559709,0.12756 0.06016,0.005 0.669342,0.0315 1.023703,0.0528 0.354357,0.0214 0.589828,-0.13673 0.871889,-0.20715 0.282059,-0.0704 0.165217,-0.0875 0.285959,-0.19771 0.100904,-0.0921 0.151276,-0.2184 0.213688,-0.30902 0.06242,-0.0906 0.159044,-0.2598 0.238653,-0.38973 0.07962,-0.12993 0.187475,-0.17461 0.281303,-0.26195 z"
       sodipodi:nodetypes="cssssssssssscssssssssssssssscsssssssssssssssssscscc" />
    <path
       style="fill:none;stroke:#000000;stroke-width:0.0452345px;stroke-linecap:butt;stroke-linejoin:miter;stroke-opacity:1"
       d="m 93.39195,188.80658 c -0.268883,0.18148 -0.617038,0.24063 -0.930767,0.15812 -0.31373,-0.0825 -0.587739,-0.30529 -0.732543,-0.59558 -0.0213,-0.0427 -0.03993,-0.0868 -0.05553,-0.13186 -0.108859,-0.3148 -0.06209,-0.67189 0.09035,-0.96805 0.113342,-0.2202 0.284775,-0.41218 0.497954,-0.53823 0.116333,-0.0688 0.243373,-0.11744 0.37132,-0.16097 0.167288,-0.0569 0.337754,-0.10581 0.499328,-0.17735 0.422787,-0.1872 0.764828,-0.52089 1.050069,-0.8848 0.658181,-0.83971 1.054965,-1.86355 1.254624,-2.91162 0.02851,-0.14967 0.05318,-0.30004 0.07782,-0.4504 0.0905,-0.55233 0.180612,-1.10475 0.278312,-1.65586 0.0177,-0.0999 0.03571,-0.19992 0.06461,-0.29714 0.01005,-0.0338 0.02146,-0.0674 0.03764,-0.0987 0.01469,-0.0285 0.03356,-0.0552 0.05842,-0.0754 0.02486,-0.0202 0.05614,-0.0335 0.08817,-0.0331 0.03574,4.2e-4 0.06924,0.0174 0.09872,0.0376 0.04552,0.0312 0.08478,0.0709 0.119115,0.11412 0.04924,0.062 0.08852,0.13113 0.129392,0.19892 0.188081,0.31193 0.413456,0.60015 0.655244,0.87257 0.182112,0.20519 0.376329,0.40391 0.608811,0.54957 0.200893,0.12587 0.426445,0.20932 0.657573,0.26206 0.292361,0.0667 0.594387,0.0852 0.894016,0.073 0.143658,-0.006 0.287191,-0.0187 0.428812,-0.0435 0.24663,-0.0432 0.485289,-0.12221 0.724869,-0.19497 0.17119,-0.052 0.34345,-0.10094 0.51827,-0.13895 0.0765,-0.0166 0.15524,-0.0312 0.23281,-0.0204 0.0267,0.004 0.0532,0.0105 0.0777,0.0219 0.0245,0.0113 0.047,0.0273 0.0644,0.0479 0.0299,0.0355 0.0433,0.0844 0.0356,0.13012 -0.006,0.0374 -0.0254,0.0713 -0.0455,0.10351 -0.0197,0.0317 -0.0407,0.0627 -0.0631,0.0925 -0.054,0.0717 -0.11642,0.13662 -0.17981,0.20017 -0.29364,0.29438 -0.6106,0.56441 -0.91226,0.85057 -0.284646,0.27002 -0.555551,0.5543 -0.816919,0.84691 -0.114013,0.12764 -0.226618,0.25739 -0.320551,0.40046 -0.111845,0.17035 -0.196007,0.35796 -0.259087,0.55174 -0.144738,0.44462 -0.178066,0.92816 -0.07281,1.38374 0.0209,0.0904 0.0471,0.17957 0.07033,0.26945 0.03594,0.13909 0.06475,0.28 0.08698,0.42193 0.0198,0.12641 0.03441,0.25467 0.02381,0.38218 -0.02376,0.28585 -0.176859,0.55315 -0.393197,0.74149 -0.09584,0.0834 -0.207298,0.15413 -0.332159,0.17774 -0.109171,0.0206 -0.222722,0.004 -0.328483,-0.03 -0.09977,-0.0321 -0.193915,-0.0793 -0.287302,-0.12692 -0.165419,-0.0843 -0.330196,-0.17049 -0.501922,-0.24106 -0.177155,-0.0728 -0.360942,-0.12862 -0.546889,-0.17452 -0.332417,-0.0821 -0.673217,-0.13269 -1.015548,-0.13935 -0.300602,-0.006 -0.606204,0.0233 -0.886304,0.13256 -0.108475,0.0423 -0.213267,0.097 -0.301682,0.17277 -0.0954,0.0817 -0.169031,0.18552 -0.239103,0.2898 -0.08506,0.12658 -0.167001,0.25639 -0.270816,0.36811 -0.08758,0.0943 -0.190068,0.17461 -0.302487,0.23717 z"
       id="2"
       inkscape:path-effect="#path-effect892"
       inkscape:original-d="m 93.39195,188.80658 c -0.100898,0.0791 -1.108811,-0.29166 -1.66331,-0.43746 -0.5545,-0.14581 -0.03697,-0.0879 -0.05553,-0.13186 -0.01855,-0.0439 0.0599,-0.64542 0.09035,-0.96805 0.02945,-0.32271 0.332027,-0.35883 0.497954,-0.53823 0.165923,-0.1794 0.247611,-0.10731 0.37132,-0.16097 0.123709,-0.0536 0.332949,-0.11823 0.499328,-0.17735 0.166379,-0.0592 0.700108,-0.58989 1.050069,-0.8848 0.349959,-0.2949 0.836477,-1.94109 1.254624,-2.91162 0.418146,-0.97053 0.05194,-0.30029 0.07782,-0.4504 0.02587,-0.15011 0.1856,-1.10392 0.278312,-1.65586 0.09271,-0.55194 0.04314,-0.19812 0.06461,-0.29714 0.02147,-0.0991 0.02516,-0.0658 0.03764,-0.0987 0.01253,-0.0329 0.09781,-0.0723 0.146591,-0.10851 0.0488,-0.0362 0.06586,0.0251 0.09872,0.0376 0.03281,0.0128 0.07948,0.0762 0.119115,0.11412 0.03963,0.038 0.08633,0.13261 0.129392,0.19892 0.04307,0.0663 0.436892,0.5817 0.655244,0.87257 0.218351,0.29087 0.405936,0.36637 0.608811,0.54957 0.202882,0.1832 0.438444,0.1747 0.657573,0.26206 0.219127,0.0873 0.596072,0.0487 0.894016,0.073 0.297939,0.0243 0.285936,-0.029 0.428812,-0.0435 0.142878,-0.0142 0.483309,-0.12999 0.724869,-0.19497 0.24157,-0.065 0.34558,-0.0926 0.51827,-0.13895 0.17269,-0.0462 0.15532,-0.0129 0.23281,-0.0204 0.0775,-0.007 0.0948,0.0466 0.14209,0.0698 0.0473,0.0233 0.0238,0.0869 0.0356,0.13012 0.0115,0.0434 -0.0303,0.069 -0.0455,0.10351 -0.0152,0.0344 -0.042,0.0616 -0.0631,0.0925 -0.0211,0.031 -0.11981,0.13344 -0.17981,0.20017 -0.06,0.0667 -0.60811,0.56704 -0.91226,0.85057 -0.304141,0.28354 -0.544552,0.56461 -0.816919,0.84691 -0.272371,0.28233 -0.213641,0.26696 -0.320551,0.40046 -0.106905,0.13351 -0.172664,0.3678 -0.259087,0.55174 -0.08642,0.18393 -0.04847,0.92248 -0.07281,1.38374 -0.02428,0.46127 0.04694,0.17962 0.07033,0.26945 0.02337,0.0899 0.05804,0.28127 0.08698,0.42193 0.02893,0.14064 0.01597,0.25477 0.02381,0.38218 0.0079,0.12741 -0.262071,0.49432 -0.393197,0.74149 -0.131125,0.24719 -0.221377,0.11848 -0.332159,0.17774 -0.110778,0.0593 -0.218874,-0.0206 -0.328483,-0.03 -0.109543,-0.0102 -0.191456,-0.0846 -0.287302,-0.12692 -0.09583,-0.0423 -0.223932,-0.12 -0.501922,-0.24106 -0.277991,-0.12109 0.247489,-0.0393 -0.546889,-0.17452 -0.05952,-0.0101 -0.664266,-0.0881 -1.015548,-0.13935 -0.351267,-0.0513 -0.599291,0.0863 -0.886304,0.13256 -0.287008,0.0463 -0.172035,0.0732 -0.301682,0.17277 -0.108342,0.0833 -0.169237,0.2048 -0.239103,0.2898 -0.06987,0.085 -0.180485,0.24539 -0.270816,0.36811 -0.09034,0.12271 -0.201595,0.1581 -0.302487,0.23717 z"
       sodipodi:nodetypes="cssssssssssscssssssssssssssscsssssssssssssssssscscc" />
    <path
       style="fill:none;stroke:#000000;stroke-width:0.0452345px;stroke-linecap:butt;stroke-linejoin:miter;stroke-opacity:1"
       d="m 90.123128,172.20625 c 0.111762,0.3049 0.08496,0.65762 -0.07159,0.94213 -0.156548,0.28451 -0.440156,0.49593 -0.757526,0.56471 -0.04664,0.0101 -0.09392,0.0173 -0.141476,0.0213 -0.331826,0.028 -0.666789,-0.10321 -0.917091,-0.32285 -0.186159,-0.16336 -0.330529,-0.37649 -0.400854,-0.61397 -0.03838,-0.12959 -0.05465,-0.26465 -0.06573,-0.39934 -0.01449,-0.17611 -0.02042,-0.35334 -0.05049,-0.52747 -0.07867,-0.45564 -0.31909,-0.86861 -0.602643,-1.23384 -0.654283,-0.84275 -1.550783,-1.47677 -2.518746,-1.9255 -0.138229,-0.0641 -0.278073,-0.12461 -0.417913,-0.18509 -0.513704,-0.22219 -1.027614,-0.44396 -1.538334,-0.67293 -0.09255,-0.0415 -0.185208,-0.0833 -0.272487,-0.13499 -0.03035,-0.018 -0.06013,-0.0372 -0.08659,-0.0605 -0.02403,-0.0212 -0.04539,-0.046 -0.05892,-0.075 -0.01353,-0.029 -0.01876,-0.0626 -0.0106,-0.0935 0.0091,-0.0346 0.03372,-0.0629 0.0605,-0.0866 0.04135,-0.0365 0.08942,-0.0649 0.139684,-0.0877 0.07211,-0.0327 0.148723,-0.054 0.224418,-0.0772 0.348258,-0.10672 0.682704,-0.25501 1.005799,-0.42318 0.243356,-0.12667 0.483355,-0.26671 0.681212,-0.45676 0.170971,-0.16423 0.3068,-0.36268 0.414213,-0.57402 0.135872,-0.26733 0.227306,-0.55578 0.288392,-0.84937 0.02929,-0.14076 0.05174,-0.28311 0.06215,-0.42651 0.01813,-0.24973 -3.29e-4,-0.50045 -0.0127,-0.75053 -0.0088,-0.17869 -0.01457,-0.35769 -0.0086,-0.5365 0.0026,-0.0783 0.0078,-0.15814 0.03732,-0.23069 0.01016,-0.025 0.02321,-0.049 0.04018,-0.07 0.01697,-0.021 0.03796,-0.039 0.06219,-0.0508 0.04166,-0.0205 0.09234,-0.0216 0.134876,-0.003 0.03478,0.0152 0.06296,0.0421 0.08931,0.0694 0.02592,0.0269 0.05087,0.0547 0.07436,0.0837 0.05647,0.0698 0.104186,0.14617 0.150394,0.22313 0.21402,0.35648 0.398835,0.7296 0.602986,1.09182 0.192641,0.3418 0.402433,0.67375 0.62263,0.99848 0.09605,0.14165 0.194495,0.28245 0.310406,0.40837 0.138014,0.14993 0.29952,0.2772 0.472091,0.38558 0.396,0.2487 0.856875,0.3992 1.324424,0.40738 0.09282,0.002 0.185633,-0.002 0.278461,-0.003 0.143653,-0.001 0.28734,0.005 0.430408,0.0183 0.12743,0.0116 0.255394,0.0286 0.376501,0.0699 0.271487,0.0926 0.493496,0.30615 0.623504,0.56183 0.05759,0.11327 0.09902,0.23858 0.09155,0.36543 -0.0065,0.11091 -0.05024,0.21702 -0.108983,0.31132 -0.05542,0.089 -0.12414,0.16878 -0.193032,0.24777 -0.122028,0.13992 -0.245728,0.27877 -0.355962,0.42816 -0.113721,0.15412 -0.212597,0.31879 -0.302373,0.48798 -0.16049,0.30245 -0.292534,0.62068 -0.382312,0.9511 -0.07883,0.29014 -0.124966,0.59364 -0.08715,0.89191 0.01465,0.11551 0.04219,0.23046 0.09416,0.33466 0.05608,0.11243 0.138809,0.2091 0.222899,0.30244 0.102078,0.11331 0.208036,0.22438 0.291132,0.35227 0.0701,0.10788 0.1231,0.22685 0.156427,0.35111 z"
       id="3"
       inkscape:path-effect="#path-effect904"
       inkscape:original-d="m 90.123128,172.20625 c 0.05221,0.11712 -0.55274,1.00449 -0.829113,1.50684 -0.276371,0.50234 -0.09433,0.0142 -0.141476,0.0213 -0.04713,0.007 -0.6114,-0.21527 -0.917091,-0.32285 -0.305674,-0.10757 -0.267234,-0.40938 -0.400854,-0.61397 -0.133626,-0.2046 -0.04386,-0.26628 -0.06573,-0.39934 -0.02189,-0.13304 -0.03367,-0.35171 -0.05049,-0.52747 -0.01684,-0.17577 -0.401761,-0.82263 -0.602643,-1.23384 -0.200872,-0.41121 -1.679159,-1.28373 -2.518746,-1.9255 -0.839586,-0.64178 -0.27861,-0.12346 -0.417913,-0.18509 -0.139292,-0.0616 -1.025555,-0.44869 -1.538334,-0.67293 -0.512783,-0.22425 -0.181663,-0.0901 -0.272487,-0.13499 -0.09085,-0.045 -0.0577,-0.0404 -0.08659,-0.0605 -0.02881,-0.0201 -0.04639,-0.11247 -0.06952,-0.16857 -0.02324,-0.0562 0.04034,-0.0578 0.0605,-0.0866 0.02044,-0.0287 0.09317,-0.0585 0.139684,-0.0877 0.04649,-0.0292 0.149616,-0.0515 0.224418,-0.0772 0.07478,-0.0256 0.670537,-0.28218 1.005799,-0.42318 0.335268,-0.14095 0.454149,-0.30457 0.681212,-0.45676 0.227066,-0.15219 0.276149,-0.38275 0.414213,-0.57402 0.138083,-0.19128 0.192282,-0.5663 0.288392,-0.84937 0.09614,-0.28305 0.04148,-0.28439 0.06215,-0.42651 0.02076,-0.14209 -0.0085,-0.50041 -0.0127,-0.75053 -0.0042,-0.2501 -0.0057,-0.35772 -0.0086,-0.5365 -0.0028,-0.17875 0.02491,-0.15385 0.03732,-0.23069 0.01203,-0.0769 0.06826,-0.0806 0.102367,-0.12081 0.03411,-0.0402 0.09001,-0.002 0.134876,-0.003 0.04498,-6.3e-4 0.05953,0.0462 0.08931,0.0694 0.02969,0.0232 0.04958,0.0557 0.07436,0.0837 0.02486,0.028 0.100269,0.14869 0.150394,0.22313 0.05016,0.0745 0.401991,0.72782 0.602986,1.09182 0.200995,0.36402 0.415096,0.66559 0.62263,0.99848 0.207542,0.33289 0.206938,0.27218 0.310406,0.40837 0.103476,0.13618 0.314725,0.25699 0.472091,0.38558 0.157364,0.12858 0.88295,0.27151 1.324424,0.40738 0.44148,0.13581 0.185641,-0.002 0.278461,-0.003 0.0929,-7.6e-4 0.286939,0.0121 0.430408,0.0183 0.143458,0.006 0.251003,0.0465 0.376501,0.0699 0.125496,0.0234 0.41567,0.3745 0.623504,0.56183 0.207834,0.18734 0.06104,0.24356 0.09155,0.36543 0.03049,0.12186 -0.07327,0.20727 -0.108983,0.31132 -0.03653,0.10379 -0.128676,0.1651 -0.193032,0.24777 -0.06432,0.0827 -0.170887,0.18799 -0.355962,0.42816 -0.185102,0.24017 0.02214,-0.2496 -0.302373,0.48798 -0.02426,0.0553 -0.247112,0.62286 -0.382312,0.9511 -0.135291,0.32821 -0.06218,0.60227 -0.08715,0.89191 -0.025,0.28963 0.02912,0.18467 0.09416,0.33466 0.05435,0.12534 0.157453,0.21399 0.222899,0.30244 0.06543,0.0885 0.194088,0.23478 0.291132,0.35227 0.09704,0.11748 0.104276,0.234 0.156427,0.35111 z"
       sodipodi:nodetypes="cssssssssssscssssssssssssssscsssssssssssssssssscscc" />
    <path
       style="fill:none;stroke:#000000;stroke-width:0.0452345px;stroke-linecap:butt;stroke-linejoin:miter;stroke-opacity:1"
       d="m 100.14873,152.57633 c -0.0246,0.32355 -0.194428,0.63331 -0.454042,0.82795 -0.259614,0.19465 -0.604573,0.27088 -0.922033,0.20376 -0.0467,-0.01 -0.09278,-0.0227 -0.137809,-0.0385 -0.314236,-0.11042 -0.565261,-0.36851 -0.702768,-0.67187 -0.102246,-0.22557 -0.146119,-0.47921 -0.11245,-0.72457 0.01837,-0.13389 0.05916,-0.26367 0.104523,-0.39098 0.05932,-0.16645 0.126895,-0.33041 0.171203,-0.50147 0.115939,-0.44761 0.06692,-0.92294 -0.04107,-1.37253 -0.249179,-1.03741 -0.805035,-1.98436 -1.502323,-2.79189 -0.09958,-0.11532 -0.202088,-0.22806 -0.30461,-0.34077 -0.376615,-0.41403 -0.753552,-0.8278 -1.124722,-1.24672 -0.06726,-0.0759 -0.134479,-0.15218 -0.192722,-0.23521 -0.02025,-0.0289 -0.03947,-0.0587 -0.05397,-0.0908 -0.01317,-0.0292 -0.02243,-0.0606 -0.0228,-0.0926 -3.7e-4,-0.032 0.0087,-0.0648 0.0289,-0.0896 0.02255,-0.0277 0.05666,-0.0434 0.09079,-0.054 0.05272,-0.0164 0.108184,-0.0227 0.16338,-0.0229 0.07917,-2.5e-4 0.157751,0.012 0.236261,0.0222 0.361239,0.0468 0.727138,0.0489 1.090825,0.0286 0.273917,-0.0153 0.550297,-0.044 0.808871,-0.13565 0.223442,-0.0792 0.428939,-0.20415 0.613849,-0.35251 0.233899,-0.18766 0.436016,-0.41285 0.612579,-0.65524 0.08466,-0.11622 0.16373,-0.2367 0.232271,-0.36309 0.119359,-0.2201 0.205796,-0.45617 0.297501,-0.68915 0.06553,-0.16648 0.134006,-0.33196 0.213073,-0.49245 0.03461,-0.0703 0.07225,-0.14089 0.129009,-0.19486 0.01956,-0.0186 0.04131,-0.0351 0.06542,-0.0472 0.02411,-0.0121 0.05064,-0.0199 0.07762,-0.0207 0.04639,-0.001 0.093,0.0184 0.124093,0.0529 0.02542,0.0282 0.04001,0.0643 0.05277,0.10001 0.01256,0.0352 0.02384,0.0708 0.0333,0.10688 0.02274,0.0868 0.03478,0.1761 0.0452,0.26527 0.04827,0.41298 0.06296,0.82911 0.0998,1.24326 0.03477,0.3908 0.08926,0.77969 0.156193,1.16628 0.0292,0.16864 0.0609,0.33749 0.11468,0.49998 0.064,0.19347 0.15875,0.37597 0.27142,0.54577 0.25852,0.38962 0.61675,0.71609 1.03914,0.91663 0.0839,0.0398 0.16998,0.0747 0.25484,0.11228 0.13132,0.0582 0.25964,0.12321 0.38467,0.19394 0.11137,0.063 0.22097,0.13121 0.31432,0.21872 0.20928,0.19617 0.32367,0.48221 0.33682,0.76875 0.006,0.12694 -0.008,0.25818 -0.0671,0.3707 -0.0516,0.0984 -0.13515,0.17708 -0.22752,0.23882 -0.0871,0.0583 -0.18262,0.10268 -0.27793,0.1463 -0.16882,0.0773 -0.33873,0.15284 -0.50071,0.24358 -0.1671,0.0936 -0.32501,0.20295 -0.47649,0.32015 -0.2708,0.20953 -0.52218,0.44515 -0.74006,0.70928 -0.19132,0.23193 -0.35835,0.4895 -0.44672,0.77688 -0.03422,0.11129 -0.05646,0.22739 -0.052,0.34374 0.0048,0.12555 0.04041,0.24771 0.0786,0.3674 0.0464,0.14529 0.0972,0.29014 0.12023,0.44089 0.0195,0.12718 0.0188,0.25741 -0.002,0.38438 z"
       id="4"
       inkscape:path-effect="#path-effect916"
       inkscape:original-d="m 100.14873,152.57633 c -6.6e-4,0.12823 -0.917356,0.68774 -1.376075,1.03171 -0.458718,0.34395 -0.09186,-0.0257 -0.137809,-0.0385 -0.04596,-0.0128 -0.468501,-0.44795 -0.702768,-0.67187 -0.234252,-0.2239 -0.07493,-0.4831 -0.11245,-0.72457 -0.03752,-0.24148 0.06971,-0.26071 0.104523,-0.39098 0.03484,-0.13024 0.114157,-0.33438 0.171203,-0.50147 0.05703,-0.1671 -0.02736,-0.91507 -0.04107,-1.37253 -0.01371,-0.45743 -1.00152,-1.86132 -1.502323,-2.79189 -0.500803,-0.93057 -0.20305,-0.22724 -0.30461,-0.34077 -0.10156,-0.11352 -0.749788,-0.83121 -1.124722,-1.24672 -0.374937,-0.41552 -0.128455,-0.15688 -0.192722,-0.23521 -0.06429,-0.0784 -0.03594,-0.0606 -0.05397,-0.0908 -0.01797,-0.0302 0.004,-0.1216 0.0061,-0.18225 0.0019,-0.0608 0.06056,-0.0361 0.09079,-0.054 0.03044,-0.0177 0.109022,-0.0149 0.16338,-0.0229 0.05445,-0.007 0.157544,0.0148 0.236261,0.0222 0.0787,0.007 0.727242,0.0189 1.090825,0.0286 0.363578,0.01 0.539279,-0.0905 0.808871,-0.13565 0.2696,-0.0452 0.409265,-0.23506 0.613849,-0.35251 0.204602,-0.11742 0.408427,-0.43688 0.612579,-0.65524 0.204174,-0.21836 0.154917,-0.24208 0.232271,-0.36309 0.07743,-0.12093 0.198368,-0.45949 0.297501,-0.68915 0.09915,-0.22966 0.142074,-0.32836 0.213073,-0.49245 0.071,-0.16405 0.08609,-0.12996 0.129009,-0.19486 0.04268,-0.0651 0.09544,-0.0453 0.143038,-0.0679 0.04763,-0.0226 0.08282,0.0353 0.124093,0.0529 0.04127,0.0177 0.03524,0.0666 0.05277,0.10001 0.01751,0.0333 0.02226,0.0712 0.0333,0.10688 0.0109,0.0357 0.0302,0.17678 0.0452,0.26527 0.0147,0.0885 0.0666,0.82877 0.0998,1.24326 0.0333,0.41447 0.10415,0.77748 0.156193,1.16628 0.0525,0.38877 0.0764,0.33326 0.11468,0.49998 0.0382,0.1667 0.18097,0.36378 0.27142,0.54577 0.0904,0.18198 0.69279,0.61102 1.03914,0.91663 0.34638,0.30558 0.16991,0.0748 0.25484,0.11228 0.085,0.0375 0.25647,0.12924 0.38467,0.19394 0.12819,0.0647 0.20957,0.14576 0.31432,0.21872 0.10475,0.073 0.22457,0.51244 0.33682,0.76875 0.1122,0.25631 -0.0446,0.24708 -0.0671,0.3707 -0.0224,0.12361 -0.15212,0.15871 -0.22752,0.23882 -0.076,0.0795 -0.18524,0.0975 -0.27793,0.1463 -0.0926,0.0488 -0.23315,0.10092 -0.50071,0.24358 -0.26757,0.14262 0.12297,-0.21834 -0.47649,0.32015 -0.0449,0.0404 -0.48168,0.46583 -0.74006,0.70928 -0.25845,0.24337 -0.30468,0.52322 -0.44672,0.77688 -0.142053,0.25365 -0.0495,0.18028 -0.052,0.34374 -0.002,0.1366 0.0554,0.25985 0.0786,0.3674 0.0232,0.10755 0.0802,0.29387 0.12023,0.44089 0.04,0.14703 -0.001,0.25619 -0.002,0.38438 z"
       sodipodi:nodetypes="cssssssssssscssssssssssssssscsssssssssssssssssscscc" />
    <path
       style="fill:none;stroke:#000000;stroke-width:0.0452345px;stroke-linecap:butt;stroke-linejoin:miter;stroke-opacity:1"
       d="m 100.74888,131.01509 c -0.32232,-0.0366 -0.62546,-0.21781 -0.81041,-0.48431 -0.184955,-0.26651 -0.248608,-0.61387 -0.170172,-0.92864 0.01154,-0.0463 0.02598,-0.0919 0.04342,-0.13633 0.121692,-0.31007 0.389172,-0.55122 0.697452,-0.67739 0.2292,-0.0938 0.48425,-0.12842 0.72821,-0.0858 0.13313,0.0232 0.26133,0.0688 0.38688,0.11877 0.16417,0.0654 0.32554,0.13893 0.49486,0.18947 0.44307,0.13224 0.91988,0.10052 1.37311,0.009 1.0458,-0.21118 2.01252,-0.7318 2.84507,-1.399 0.11889,-0.0953 0.23532,-0.19359 0.35171,-0.29192 0.42755,-0.36119 0.85484,-0.72273 1.28709,-1.07828 0.0783,-0.0644 0.15702,-0.1288 0.24212,-0.18397 0.0296,-0.0192 0.0601,-0.0373 0.0927,-0.0506 0.0297,-0.0121 0.0614,-0.0202 0.0934,-0.0194 0.032,8.1e-4 0.0644,0.0111 0.0885,0.0322 0.0269,0.0235 0.0413,0.0582 0.0506,0.0927 0.0143,0.0533 0.0185,0.10898 0.0165,0.16414 -0.003,0.0791 -0.0178,0.1572 -0.0308,0.23529 -0.0596,0.35933 -0.0754,0.72486 -0.0685,1.08904 0.005,0.2743 0.0238,0.55154 0.10597,0.8133 0.071,0.22619 0.18831,0.43613 0.32979,0.62635 0.17896,0.24062 0.3966,0.45085 0.63235,0.63618 0.11303,0.0889 0.23053,0.17229 0.35432,0.24542 0.21558,0.12735 0.44833,0.22238 0.6778,0.32256 0.16396,0.0716 0.32682,0.14608 0.4843,0.23097 0.0689,0.0372 0.13815,0.0774 0.19,0.13607 0.0179,0.0202 0.0335,0.0426 0.0448,0.0671 0.0112,0.0245 0.018,0.0513 0.0178,0.0783 -2.5e-4,0.0464 -0.0218,0.0923 -0.0574,0.12207 -0.0291,0.0244 -0.0657,0.0376 -0.10188,0.0491 -0.0356,0.0113 -0.0716,0.0213 -0.10803,0.0294 -0.0876,0.0196 -0.17725,0.0283 -0.26674,0.0354 -0.41448,0.033 -0.83086,0.0325 -1.24608,0.0542 -0.39181,0.0205 -0.78244,0.0606 -1.17123,0.11337 -0.16959,0.023 -0.33949,0.0485 -0.50383,0.0963 -0.19568,0.0569 -0.38153,0.14487 -0.55535,0.25124 -0.39884,0.24406 -0.73824,0.59008 -0.95411,1.00486 -0.0429,0.0823 -0.0808,0.16713 -0.12153,0.25055 -0.063,0.1291 -0.13264,0.25495 -0.20791,0.37731 -0.067,0.10898 -0.13922,0.21601 -0.23009,0.30609 -0.20371,0.20194 -0.49374,0.30575 -0.78057,0.30842 -0.12707,0.001 -0.25772,-0.0175 -0.368,-0.0806 -0.0964,-0.0552 -0.172,-0.14154 -0.23032,-0.23611 -0.055,-0.0892 -0.0959,-0.18627 -0.13602,-0.28312 -0.071,-0.17154 -0.14033,-0.3441 -0.22507,-0.50929 -0.0874,-0.17041 -0.19091,-0.33223 -0.30248,-0.4879 -0.19946,-0.2783 -0.42571,-0.53815 -0.68168,-0.76556 -0.22477,-0.19968 -0.47605,-0.37601 -0.75999,-0.47488 -0.10996,-0.0383 -0.22516,-0.0648 -0.3416,-0.0646 -0.12564,2e-4 -0.24902,0.0313 -0.37003,0.0651 -0.14689,0.041 -0.2935,0.0865 -0.445,0.104 -0.12781,0.0148 -0.25793,0.009 -0.38405,-0.0161 z"
       id="5"
       inkscape:path-effect="#path-effect928"
       inkscape:original-d="m 100.74888,131.01509 c -0.12811,-0.005 -0.65366,-0.94194 -0.980582,-1.41295 -0.326918,-0.47102 0.029,-0.0909 0.04342,-0.13633 0.01443,-0.0454 0.464742,-0.45184 0.697452,-0.67739 0.23199,-0.22624 0.48552,-0.0572 0.72821,-0.0858 0.24267,-0.0286 0.25798,0.0792 0.38688,0.11877 0.12888,0.0396 0.32997,0.12634 0.49486,0.18947 0.1649,0.0631 0.91546,0.006 1.37311,0.009 0.45764,0.003 1.89677,-0.93264 2.84507,-1.399 0.9483,-0.46637 0.23452,-0.19459 0.35171,-0.29192 0.11716,-0.0973 0.85811,-0.71883 1.28709,-1.07828 0.42898,-0.35946 0.16148,-0.12262 0.24212,-0.18397 0.0807,-0.0614 0.0619,-0.0337 0.0927,-0.0506 0.0309,-0.0168 0.12138,0.009 0.18191,0.0128 0.0606,0.004 0.0338,0.0618 0.0506,0.0927 0.0166,0.0311 0.011,0.10949 0.0165,0.16414 0.005,0.0546 -0.0205,0.15689 -0.0308,0.23529 -0.0103,0.0784 -0.0456,0.72606 -0.0685,1.08904 -0.0229,0.36299 0.0707,0.54223 0.10597,0.8133 0.0353,0.27107 0.21991,0.4176 0.32979,0.62635 0.10986,0.20877 0.42161,0.42416 0.63235,0.63618 0.21072,0.21204 0.23623,0.16368 0.35432,0.24542 0.11801,0.0818 0.45191,0.21507 0.6778,0.32256 0.22586,0.10749 0.32292,0.15401 0.4843,0.23097 0.16134,0.077 0.12671,0.0907 0.19,0.13607 0.0636,0.045 0.0418,0.097 0.0626,0.14542 0.0208,0.0484 -0.0383,0.0815 -0.0574,0.12207 -0.0192,0.0406 -0.0679,0.0328 -0.10188,0.0491 -0.0339,0.0163 -0.072,0.0196 -0.10803,0.0294 -0.0361,0.01 -0.17777,0.0236 -0.26674,0.0354 -0.089,0.0118 -0.83067,0.0362 -1.24608,0.0542 -0.41542,0.0181 -0.78077,0.0756 -1.17123,0.11337 -0.39046,0.0378 -0.33583,0.0642 -0.50383,0.0963 -0.168,0.0321 -0.37018,0.16752 -0.55535,0.25124 -0.18518,0.0837 -0.63601,0.66994 -0.95411,1.00486 -0.31805,0.33495 -0.081,0.16706 -0.12153,0.25055 -0.0406,0.0835 -0.13855,0.25157 -0.20791,0.37731 -0.0694,0.12573 -0.15334,0.20409 -0.23009,0.30609 -0.0768,0.10199 -0.52033,0.20564 -0.78057,0.30842 -0.26025,0.10277 -0.24528,-0.0537 -0.368,-0.0806 -0.12271,-0.0269 -0.15303,-0.15783 -0.23032,-0.23611 -0.0767,-0.0789 -0.0906,-0.1887 -0.13602,-0.28312 -0.0454,-0.0944 -0.0923,-0.23668 -0.22507,-0.50929 -0.13273,-0.27262 0.21369,0.13089 -0.30248,-0.4879 -0.0387,-0.0463 -0.44786,-0.49843 -0.68168,-0.76556 -0.23374,-0.26719 -0.5117,-0.32365 -0.75999,-0.47488 -0.24827,-0.15125 -0.17834,-0.0561 -0.3416,-0.0646 -0.13643,-0.007 -0.2617,0.0458 -0.37003,0.0651 -0.10833,0.0192 -0.29661,0.0694 -0.445,0.104 -0.1484,0.0346 -0.25597,-0.0107 -0.38405,-0.0161 z"
       sodipodi:nodetypes="cssssssssssscssssssssssssssscsssssssssssssssssscscc" />
    <path
       style="fill:none;stroke:#000000;stroke-width:0.0452345px;stroke-linecap:butt;stroke-linejoin:miter;stroke-opacity:1"
       d="m 84.080225,115.07596 c 0.323747,0.0209 0.635372,0.1871 0.833062,0.44433 0.19769,0.25723 0.278105,0.60113 0.214971,0.91935 -0.0093,0.0468 -0.02151,0.093 -0.03677,0.13826 -0.106511,0.3156 -0.361707,0.56965 -0.663442,0.71072 -0.22435,0.10489 -0.477431,0.15179 -0.72318,0.12108 -0.1341,-0.0168 -0.264357,-0.056 -0.392194,-0.0998 -0.167153,-0.0573 -0.331902,-0.12295 -0.503477,-0.16522 -0.448952,-0.11062 -0.923667,-0.0559 -1.371939,0.0574 -1.034368,0.26153 -1.974616,0.82865 -2.773786,1.5355 -0.114125,0.10094 -0.225641,0.20479 -0.337116,0.30865 -0.409505,0.38153 -0.818678,0.76346 -1.233222,1.13951 -0.07512,0.0681 -0.150602,0.13625 -0.232904,0.19551 -0.02863,0.0206 -0.05819,0.0402 -0.09017,0.0551 -0.02904,0.0135 -0.06035,0.0231 -0.09237,0.0239 -0.03202,7.3e-4 -0.06486,-0.008 -0.08995,-0.0279 -0.02799,-0.0222 -0.04412,-0.0561 -0.05508,-0.0901 -0.01693,-0.0525 -0.02369,-0.10796 -0.0244,-0.16315 -0.001,-0.0792 0.01021,-0.15788 0.01935,-0.23651 0.04205,-0.36181 0.04013,-0.72767 0.01555,-1.09109 -0.01851,-0.27372 -0.05056,-0.54973 -0.145332,-0.80718 -0.0819,-0.22247 -0.209263,-0.42647 -0.359811,-0.6096 -0.190435,-0.23165 -0.41802,-0.43107 -0.662497,-0.60473 -0.117214,-0.0833 -0.238623,-0.16089 -0.365819,-0.22792 -0.221512,-0.11673 -0.458591,-0.20036 -0.692661,-0.28927 -0.167248,-0.0635 -0.333543,-0.13001 -0.494952,-0.20718 -0.07066,-0.0338 -0.141727,-0.0706 -0.196383,-0.12669 -0.01883,-0.0193 -0.03557,-0.0409 -0.048,-0.0649 -0.01243,-0.0239 -0.02047,-0.0504 -0.02163,-0.0774 -0.002,-0.0464 0.01736,-0.0932 0.05144,-0.12471 0.02787,-0.0258 0.06378,-0.0408 0.09936,-0.054 0.035,-0.013 0.07048,-0.0247 0.106474,-0.0346 0.08656,-0.0238 0.175675,-0.0368 0.264711,-0.0483 0.412388,-0.0531 0.828303,-0.0729 1.241983,-0.11468 0.390354,-0.0395 0.778572,-0.0986 1.164338,-0.1701 0.168278,-0.0312 0.336731,-0.065 0.49856,-0.12066 0.192687,-0.0663 0.374041,-0.16324 0.542488,-0.27793 0.386508,-0.26316 0.708698,-0.62525 0.904185,-1.05001 0.03881,-0.0843 0.07261,-0.17085 0.109227,-0.25615 0.05667,-0.132 0.120107,-0.26108 0.189346,-0.38695 0.06167,-0.11211 0.128565,-0.22252 0.214955,-0.31691 0.19366,-0.21159 0.478318,-0.32934 0.764674,-0.34596 0.126857,-0.007 0.258265,0.005 0.371482,0.0626 0.09899,0.0504 0.178673,0.13302 0.24151,0.22464 0.05928,0.0864 0.104852,0.1814 0.149601,0.27618 0.07926,0.16789 0.156872,0.33688 0.249536,0.49776 0.09559,0.16597 0.206812,0.32257 0.325813,0.47265 0.212735,0.26829 0.451338,0.51684 0.718044,0.73155 0.234195,0.18854 0.493742,0.35248 0.782151,0.43742 0.111693,0.0329 0.228043,0.0537 0.344333,0.0479 0.125478,-0.006 0.247201,-0.0434 0.366427,-0.083 0.144724,-0.0481 0.288958,-0.1006 0.439411,-0.12554 0.126922,-0.021 0.257141,-0.0221 0.384376,-0.003 z"
       id="6"
       inkscape:path-effect="#path-effect940"
       inkscape:original-d="m 84.080225,115.07596 c 0.128234,-8.3e-4 0.69863,0.90909 1.048033,1.36368 0.349406,0.45459 -0.02459,0.0922 -0.03677,0.13826 -0.01218,0.0462 -0.44233,0.4738 -0.663442,0.71072 -0.221099,0.23691 -0.482173,0.0807 -0.72318,0.12108 -0.241008,0.0404 -0.261524,-0.0666 -0.392194,-0.0998 -0.130646,-0.0333 -0.335713,-0.11016 -0.503477,-0.16522 -0.167774,-0.055 -0.914685,0.0383 -1.371939,0.0574 -0.457248,0.0192 -1.849244,1.02365 -2.773786,1.5355 -0.924542,0.51186 -0.224798,0.20575 -0.337116,0.30865 -0.112286,0.10296 -0.822203,0.75964 -1.233222,1.13951 -0.411017,0.37986 -0.15533,0.13033 -0.232904,0.19551 -0.07759,0.0652 -0.06015,0.0367 -0.09017,0.0551 -0.02997,0.0185 -0.121655,-0.003 -0.182327,-0.004 -0.06074,-0.001 -0.03677,-0.0601 -0.05508,-0.0901 -0.01812,-0.0302 -0.0163,-0.10882 -0.0244,-0.16315 -0.0082,-0.0543 0.01285,-0.1577 0.01935,-0.23651 0.0065,-0.0787 0.01031,-0.72741 0.01555,-1.09109 0.0052,-0.36366 -0.09694,-0.53815 -0.145332,-0.80718 -0.04839,-0.26904 -0.239928,-0.40644 -0.359811,-0.6096 -0.119868,-0.20319 -0.441711,-0.4032 -0.662497,-0.60473 -0.220768,-0.20155 -0.243906,-0.15202 -0.365819,-0.22792 -0.121854,-0.076 -0.461826,-0.19288 -0.692661,-0.28927 -0.230822,-0.0964 -0.330023,-0.13815 -0.494952,-0.20718 -0.164885,-0.0691 -0.130965,-0.0845 -0.196383,-0.12669 -0.06565,-0.0418 -0.04647,-0.0949 -0.06963,-0.14221 -0.02314,-0.0474 0.03431,-0.0832 0.05144,-0.12471 0.01719,-0.0415 0.06616,-0.0361 0.09936,-0.054 0.03327,-0.0175 0.07095,-0.0231 0.106474,-0.0346 0.0356,-0.0116 0.176412,-0.0323 0.264711,-0.0483 0.08828,-0.0161 0.82793,-0.0765 1.241983,-0.11468 0.414061,-0.0382 0.776174,-0.11344 1.164338,-0.1701 0.388157,-0.0567 0.332329,-0.0804 0.49856,-0.12066 0.166259,-0.0401 0.361623,-0.18524 0.542488,-0.27793 0.180898,-0.0926 0.602723,-0.70003 0.904185,-1.05001 0.301422,-0.34999 0.07276,-0.17079 0.109227,-0.25615 0.03652,-0.0854 0.12617,-0.258 0.189346,-0.38695 0.06317,-0.12896 0.143252,-0.2113 0.214955,-0.31691 0.07171,-0.10562 0.509719,-0.23069 0.764674,-0.34596 0.254957,-0.11527 0.247599,0.0417 0.371482,0.0626 0.123877,0.021 0.160512,0.15021 0.24151,0.22464 0.08042,0.0751 0.09967,0.18408 0.149601,0.27618 0.04994,0.0921 0.103714,0.23193 0.249536,0.49776 0.14581,0.26586 -0.219793,-0.12036 0.325813,0.47265 0.04092,0.0444 0.471534,0.47609 0.718044,0.73155 0.246439,0.25553 0.526815,0.29842 0.782151,0.43742 0.255322,0.13902 0.180858,0.0474 0.344333,0.0479 0.136619,4.7e-4 0.25916,-0.0585 0.366427,-0.083 0.107255,-0.0245 0.292898,-0.0837 0.439411,-0.12554 0.146582,-0.0417 0.256197,-0.002 0.384376,-0.003 z"
       sodipodi:nodetypes="cssssssssssscssssssssssssssscsssssssssssssssssscscc" />
    <path
       style="fill:none;stroke:#000000;stroke-width:0.0452345px;stroke-linecap:butt;stroke-linejoin:miter;stroke-opacity:1"
       d="m 84.390253,105.81246 c -0.169864,0.27638 -0.462476,0.47409 -0.78227,0.52858 -0.319793,0.0545 -0.66137,-0.0352 -0.913174,-0.2397 -0.03703,-0.0301 -0.07219,-0.0625 -0.105019,-0.0971 -0.22923,-0.24167 -0.33446,-0.58606 -0.318095,-0.91875 0.01217,-0.24736 0.08901,-0.49301 0.231074,-0.69588 0.07752,-0.1107 0.173103,-0.2075 0.271629,-0.30001 0.128822,-0.12095 0.263855,-0.23591 0.381432,-0.36782 0.307661,-0.34516 0.48126,-0.79037 0.590647,-1.23962 0.252406,-1.03663 0.190704,-2.13294 -0.06054,-3.169853 -0.03588,-0.148076 -0.07555,-0.295203 -0.115228,-0.442305 -0.14577,-0.540382 -0.291793,-1.080714 -0.43074,-1.62289 -0.02518,-0.09825 -0.05017,-0.196805 -0.06394,-0.297288 -0.0048,-0.03494 -0.0082,-0.07023 -0.0064,-0.105452 0.0016,-0.03198 0.0078,-0.06415 0.02206,-0.09281 0.01429,-0.02866 0.0373,-0.05366 0.06662,-0.06653 0.03272,-0.01437 0.07025,-0.01274 0.105435,-0.0065 0.05434,0.0096 0.106503,0.02955 0.155625,0.05471 0.07045,0.03609 0.134789,0.08283 0.200022,0.127682 0.300153,0.206358 0.624485,0.37568 0.95723,0.523856 0.25062,0.111605 0.509591,0.212328 0.781488,0.248908 0.234952,0.03161 0.474826,0.01438 0.707094,-0.03309 0.293804,-0.06005 0.576486,-0.167994 0.844299,-0.302912 0.128403,-0.06469 0.253789,-0.135715 0.37251,-0.216815 0.206752,-0.141236 0.391512,-0.311715 0.579539,-0.477062 0.13435,-0.118145 0.270866,-0.234065 0.414547,-0.340666 0.0629,-0.04667 0.128657,-0.09227 0.203798,-0.114368 0.02589,-0.0076 0.05277,-0.01234 0.07976,-0.01213 0.02699,2.1e-4 0.05412,0.0055 0.07851,0.01703 0.04193,0.0199 0.07431,0.05892 0.0862,0.103783 0.0097,0.03668 0.0062,0.07547 0.0012,0.113089 -0.0049,0.037 -0.01113,0.07384 -0.01922,0.110286 -0.01945,0.08764 -0.04955,0.17252 -0.08104,0.256586 -0.145837,0.389374 -0.322837,0.766269 -0.479283,1.151503 -0.147624,0.363512 -0.276886,0.734316 -0.393993,1.108775 -0.05109,0.163348 -0.100009,0.328036 -0.126439,0.497133 -0.03147,0.201339 -0.03061,0.406965 -0.008,0.60949 0.05188,0.4647 0.221347,0.91881 0.505453,1.29019 0.0564,0.0737 0.117088,0.14405 0.175371,0.2163 0.0902,0.11181 0.174648,0.22824 0.253542,0.34829 0.07027,0.10693 0.13659,0.21768 0.179638,0.33818 0.0965,0.27012 0.06752,0.5768 -0.05168,0.8377 -0.05281,0.11558 -0.125098,0.22601 -0.22904,0.29911 -0.09087,0.0639 -0.201128,0.0957 -0.311503,0.10842 -0.104128,0.012 -0.209364,0.008 -0.314067,0.003 -0.185467,-0.008 -0.371139,-0.0188 -0.556678,-0.0121 -0.191401,0.007 -0.381832,0.032 -0.570131,0.067 -0.336627,0.0626 -0.667888,0.15734 -0.98238,0.29273 -0.276154,0.11888 -0.542421,0.27167 -0.752348,0.4869 -0.0813,0.0834 -0.154132,0.17645 -0.20334,0.28198 -0.0531,0.11387 -0.07727,0.23879 -0.09799,0.36271 -0.02515,0.15042 -0.04614,0.30248 -0.09452,0.44711 -0.04081,0.12201 -0.100938,0.23754 -0.177458,0.34097 z"
       id="7"
       inkscape:path-effect="#path-effect952"
       inkscape:original-d="m 84.390253,105.81246 c -0.05919,0.11374 -1.130245,0.19253 -1.695444,0.28888 -0.565198,0.0964 -0.06996,-0.0648 -0.105019,-0.0971 -0.03506,-0.0323 -0.212036,-0.61252 -0.318095,-0.91875 -0.106046,-0.3062 0.154098,-0.46396 0.231074,-0.69588 0.07697,-0.23193 0.181138,-0.20005 0.271629,-0.30001 0.09049,-0.10003 0.254336,-0.24525 0.381432,-0.36782 0.127087,-0.12257 0.393815,-0.82645 0.590647,-1.23962 0.196834,-0.41315 -0.04031,-2.11328 -0.06054,-3.169853 -0.02023,-1.056582 -0.07677,-0.294905 -0.115228,-0.442305 -0.03846,-0.147381 -0.287111,-1.081962 -0.43074,-1.62289 -0.14363,-0.540927 -0.04258,-0.19824 -0.06394,-0.297288 -0.02138,-0.09908 -0.0043,-0.07033 -0.0064,-0.105452 -0.0021,-0.03509 0.05916,-0.106319 0.08868,-0.15934 0.02949,-0.05313 0.07034,-0.0044 0.105435,-0.0065 0.03517,-0.0019 0.103822,0.03647 0.155625,0.05471 0.05179,0.01823 0.133401,0.08508 0.200022,0.127682 0.06661,0.04257 0.638206,0.349201 0.95723,0.523856 0.319024,0.174655 0.521046,0.165905 0.781488,0.248908 0.26045,0.083 0.471452,-0.02203 0.707094,-0.03309 0.235655,-0.01096 0.562922,-0.201961 0.844299,-0.302912 0.281386,-0.100928 0.248413,-0.144535 0.37251,-0.216815 0.124137,-0.07219 0.386414,-0.318072 0.579539,-0.477062 0.193133,-0.158972 0.276419,-0.227144 0.414547,-0.340666 0.138153,-0.113453 0.135924,-0.07627 0.203798,-0.114368 0.06771,-0.03847 0.105577,0.0033 0.158267,0.0049 0.05268,0.0016 0.05754,0.06923 0.0862,0.103783 0.02868,0.0346 8.6e-4,0.07534 0.0012,0.113089 3.79e-4,0.03765 -0.01277,0.07351 -0.01922,0.110286 -0.0065,0.03687 -0.05398,0.171022 -0.08104,0.256586 -0.02705,0.08558 -0.319472,0.767631 -0.479283,1.151503 -0.159813,0.383871 -0.262609,0.739158 -0.393993,1.108775 -0.131382,0.369636 -0.08424,0.33138 -0.126439,0.497133 -0.04218,0.165752 -0.0053,0.406277 -0.008,0.60949 -0.0027,0.20321 0.337027,0.86007 0.505453,1.29019 0.168469,0.43008 0.11696,0.14416 0.175371,0.2163 0.05843,0.0723 0.169079,0.23216 0.253542,0.34829 0.08446,0.11613 0.119811,0.22542 0.179638,0.33818 0.05982,0.11277 -0.03441,0.55843 -0.05168,0.8377 -0.01728,0.27929 -0.152642,0.19937 -0.22904,0.29911 -0.0764,0.0998 -0.207839,0.0716 -0.311503,0.10842 -0.103959,0.036 -0.209308,0.002 -0.314067,0.003 -0.104749,0.001 -0.253505,-0.0168 -0.556678,-0.0121 -0.303169,0.005 0.209151,-0.13802 -0.570131,0.067 -0.05835,0.0156 -0.641312,0.19425 -0.98238,0.29273 -0.341097,0.0984 -0.510099,0.32617 -0.752348,0.4869 -0.242255,0.16071 -0.126424,0.13773 -0.20334,0.28198 -0.06427,0.12056 -0.06949,0.25643 -0.09799,0.36271 -0.02852,0.10626 -0.06296,0.29803 -0.09452,0.44711 -0.03156,0.14908 -0.118256,0.22727 -0.177458,0.34097 z"
       sodipodi:nodetypes="cssssssssssscssssssssssssssscsssssssssssssssssscscc" />
    <path
       style="fill:none;stroke:#000000;stroke-width:0.0452345px;stroke-linecap:butt;stroke-linejoin:miter;stroke-opacity:1"
       d="m 73.890783,91.475325 c 0.02037,-0.323781 0.18609,-0.63567 0.443008,-0.833766 0.256917,-0.198097 0.600694,-0.279054 0.919012,-0.216421 0.04682,0.0092 0.09307,0.02136 0.13831,0.03655 0.315766,0.106013 0.570214,0.360811 0.711775,0.662319 0.105256,0.224182 0.15257,0.477192 0.12222,0.722987 -0.01656,0.13413 -0.05559,0.264447 -0.09924,0.392354 -0.05707,0.167236 -0.122425,0.332092 -0.164418,0.503734 -0.109883,0.449131 -0.05445,0.923755 0.0596,1.371847 0.263164,1.033953 0.831754,1.973314 1.539877,2.771359 0.101124,0.113965 0.205148,0.225315 0.309183,0.336629 0.38217,0.40891 0.764668,0.817542 1.141451,1.231421 0.06827,0.075 0.13652,0.15036 0.195879,0.232595 0.02064,0.0286 0.04026,0.05813 0.0552,0.09008 0.01356,0.02901 0.02324,0.0603 0.02405,0.09231 8.08e-4,0.03202 -0.0078,0.06488 -0.02765,0.09001 -0.02216,0.02804 -0.05605,0.04422 -0.09005,0.05523 -0.05251,0.017 -0.107921,0.02386 -0.163108,0.02466 -0.07915,0.0012 -0.157893,-0.01 -0.236539,-0.01898 -0.361874,-0.0415 -0.727735,-0.03898 -1.091112,-0.01383 -0.273691,0.01895 -0.549653,0.05143 -0.806959,0.146608 -0.222344,0.08225 -0.42614,0.209934 -0.609033,0.360771 -0.231348,0.1908 -0.430403,0.4187 -0.603679,0.663449 -0.08308,0.11735 -0.160518,0.23888 -0.227347,0.36618 -0.116383,0.2217 -0.19963,0.45891 -0.28817,0.69312 -0.06326,0.16735 -0.129484,0.33374 -0.206402,0.49527 -0.03367,0.0707 -0.07037,0.14183 -0.126372,0.19658 -0.0193,0.0189 -0.04083,0.0357 -0.06477,0.0481 -0.02394,0.0125 -0.05037,0.0206 -0.07733,0.0218 -0.04636,0.002 -0.09324,-0.0172 -0.124799,-0.0512 -0.02581,-0.0278 -0.0409,-0.0637 -0.05416,-0.0993 -0.01304,-0.035 -0.0248,-0.0705 -0.03474,-0.10643 -0.0239,-0.0865 -0.03712,-0.17561 -0.04874,-0.26462 -0.0538,-0.41229 -0.07418,-0.82818 -0.116635,-1.2418 -0.04006,-0.390295 -0.09978,-0.778418 -0.171935,-1.164072 -0.03147,-0.168229 -0.06548,-0.336629 -0.121434,-0.498372 -0.06662,-0.192584 -0.163816,-0.373789 -0.278763,-0.542057 -0.263752,-0.3861 -0.626354,-0.707717 -1.051427,-0.902528 -0.08439,-0.03867 -0.170971,-0.07234 -0.25633,-0.108822 -0.132096,-0.05646 -0.261278,-0.119691 -0.387256,-0.188733 -0.112208,-0.06149 -0.222718,-0.128217 -0.317242,-0.214457 -0.211898,-0.193328 -0.33011,-0.477796 -0.347163,-0.764127 -0.0076,-0.126846 0.0045,-0.258272 0.06204,-0.371578 0.05029,-0.09907 0.132744,-0.178885 0.224271,-0.241867 0.08635,-0.05942 0.181229,-0.105136 0.275941,-0.150034 0.167763,-0.07953 0.336629,-0.157407 0.497362,-0.250326 0.165816,-0.09586 0.322243,-0.207321 0.47213,-0.326558 0.267951,-0.213159 0.516124,-0.452154 0.730417,-0.719198 0.188172,-0.234493 0.351703,-0.494298 0.436189,-0.782842 0.03272,-0.111746 0.05339,-0.228128 0.04737,-0.344409 -0.0065,-0.125468 -0.04372,-0.247141 -0.08353,-0.366305 -0.04832,-0.144652 -0.101092,-0.2888 -0.126178,-0.439231 -0.02116,-0.126904 -0.02221,-0.25714 -0.0031,-0.384369 z"
       id="8"
       inkscape:path-effect="#path-effect964"
       inkscape:original-d="m 73.890783,91.475325 c -0.0011,-0.128225 0.907985,-0.700065 1.36202,-1.050187 0.454033,-0.350121 0.0922,0.02445 0.13831,0.03655 0.04612,0.01212 0.474506,0.441581 0.711775,0.662319 0.237253,0.220724 0.08145,0.482045 0.12222,0.722987 0.04077,0.240939 -0.06618,0.261628 -0.09924,0.392354 -0.03308,0.130705 -0.109633,0.335885 -0.164418,0.503734 -0.05477,0.167862 0.0397,0.914624 0.0596,1.371847 0.01989,0.457217 1.026557,1.847628 1.539877,2.771359 0.51332,0.923732 0.206099,0.224474 0.309183,0.336629 0.103087,0.11214 0.76094,0.821002 1.141451,1.231421 0.380512,0.410417 0.13056,0.155131 0.195879,0.232595 0.06534,0.07748 0.03676,0.0601 0.0552,0.09008 0.01838,0.02999 -0.0024,0.121647 -0.0036,0.182319 -0.0011,0.06075 -0.06007,0.03686 -0.09005,0.05523 -0.03019,0.01815 -0.1088,0.01647 -0.163108,0.02466 -0.05429,0.0082 -0.157723,-0.0126 -0.236539,-0.01898 -0.07879,-0.0063 -0.727437,-0.0092 -1.091112,-0.01383 -0.363674,-0.0047 -0.538004,0.0978 -0.806959,0.146608 -0.26896,0.04882 -0.406054,0.240568 -0.609033,0.360771 -0.202996,0.120192 -0.402493,0.442343 -0.603679,0.663449 -0.201207,0.22108 -0.151634,0.24415 -0.227347,0.36618 -0.07579,0.12197 -0.192147,0.46213 -0.28817,0.69312 -0.09604,0.23097 -0.137633,0.33024 -0.206402,0.49527 -0.06882,0.16499 -0.08429,0.1311 -0.126372,0.19658 -0.04177,0.0657 -0.09478,0.0466 -0.142102,0.0699 -0.04733,0.0232 -0.08329,-0.0341 -0.124799,-0.0512 -0.04156,-0.0171 -0.03612,-0.0662 -0.05416,-0.0993 -0.01797,-0.0331 -0.02318,-0.0709 -0.03474,-0.10643 -0.01162,-0.0356 -0.03252,-0.17636 -0.04874,-0.26462 -0.01624,-0.0883 -0.07779,-0.82782 -0.116635,-1.2418 -0.03886,-0.413998 -0.114659,-0.775999 -0.171935,-1.164072 -0.05729,-0.388082 -0.08098,-0.332192 -0.121434,-0.498372 -0.04046,-0.166177 -0.185865,-0.361312 -0.278763,-0.542057 -0.09289,-0.180746 -0.700981,-0.601618 -1.051427,-0.902528 -0.350472,-0.300866 -0.170908,-0.07249 -0.25633,-0.108822 -0.08546,-0.03639 -0.258197,-0.125763 -0.387256,-0.188733 -0.129049,-0.06297 -0.211521,-0.142919 -0.317242,-0.214457 -0.105714,-0.07155 -0.231467,-0.509362 -0.347163,-0.764127 -0.115696,-0.254767 0.04134,-0.247663 0.06204,-0.371578 0.02073,-0.123897 0.149966,-0.16075 0.224271,-0.241867 0.07494,-0.08054 0.183918,-0.09995 0.275941,-0.150034 0.09199,-0.05008 0.231756,-0.104083 0.497362,-0.250326 0.265631,-0.146225 -0.120008,0.219983 0.47213,-0.326558 0.04432,-0.04098 0.47535,-0.472285 0.730417,-0.719198 0.255139,-0.246842 0.29759,-0.527287 0.436189,-0.782842 0.138611,-0.255538 0.04707,-0.180932 0.04737,-0.344409 2.51e-4,-0.136617 -0.05886,-0.259072 -0.08353,-0.366305 -0.02464,-0.107225 -0.08415,-0.292764 -0.126178,-0.439231 -0.04203,-0.146475 -0.0021,-0.256184 -0.0031,-0.384369 z"
       sodipodi:nodetypes="cssssssssssscssssssssssssssscsssssssssssssssssscscc" />
  </g>
</svg>
