<?xml version="1.0" encoding="UTF-8" standalone="no"?>
<svg
   xmlns:dc="http://purl.org/dc/elements/1.1/"
   xmlns:cc="http://creativecommons.org/ns#"
   xmlns:rdf="http://www.w3.org/1999/02/22-rdf-syntax-ns#"
   xmlns:svg="http://www.w3.org/2000/svg"
   xmlns="http://www.w3.org/2000/svg"
   xmlns:sodipodi="http://sodipodi.sourceforge.net/DTD/sodipodi-0.dtd"
   xmlns:inkscape="http://www.inkscape.org/namespaces/inkscape"
   width="63.632763mm"
   height="38.068844mm"
   viewBox="0 0 63.632763 38.068844"
   version="1.1"
   id="svg8"
   inkscape:version="1.0.2 (e86c870879, 2021-01-15, custom)"
   sodipodi:docname="SP_Hold.svg">
  <defs
     id="defs2">
    <inkscape:path-effect
       effect="spiro"
       id="path-effect851"
       is_visible="true"
       lpeversion="1" />
  </defs>
  <sodipodi:namedview
     id="base"
     pagecolor="#ffffff"
     bordercolor="#666666"
     borderopacity="1.0"
     inkscape:pageopacity="0.0"
     inkscape:pageshadow="2"
     inkscape:zoom="2.8284271"
     inkscape:cx="128.17657"
     inkscape:cy="117.80355"
     inkscape:document-units="mm"
     inkscape:current-layer="layer1"
     inkscape:document-rotation="0"
     showgrid="false"
     inkscape:window-width="1920"
     inkscape:window-height="1057"
     inkscape:window-x="-8"
     inkscape:window-y="113"
     inkscape:window-maximized="1" />
  <metadata
     id="metadata5">
    <rdf:RDF>
      <cc:Work
         rdf:about="">
        <dc:format>image/svg+xml</dc:format>
        <dc:type
           rdf:resource="http://purl.org/dc/dcmitype/StillImage" />
        <dc:title></dc:title>
      </cc:Work>
    </rdf:RDF>
  </metadata>
  <g
     inkscape:label="Layer 1"
     inkscape:groupmode="layer"
     id="layer1"
     transform="translate(-76.121721,-106.88739)">
    <path
       style="fill:none;stroke:#000000;stroke-width:0.264583px;stroke-linecap:butt;stroke-linejoin:miter;stroke-opacity:1"
       d="m 80.237731,121.77901 c -1.736434,-0.76531 -3.114223,-2.3046 -3.683175,-4.11491 -0.568952,-1.8103 -0.319451,-3.86102 0.666978,-5.48209 0.145092,-0.23844 0.305152,-0.46782 0.479848,-0.6855 1.219398,-1.51946 3.131749,-2.40204 5.072698,-2.57062 1.443187,-0.12534 2.927687,0.1256 4.215823,0.78833 0.702928,0.36164 1.339576,0.83895 1.953673,1.33672 0.802918,0.65083 1.576008,1.3424 2.433523,1.9194 2.243841,1.50982 4.961343,2.16349 7.651491,2.44183 6.20742,0.64226 12.51205,-0.58309 18.32247,-2.85985 0.82975,-0.32513 1.651,-0.67147 2.47208,-1.01792 3.01625,-1.2727 6.0317,-2.54759 9.06429,-3.78083 0.54953,-0.22347 1.101,-0.44605 1.67229,-0.6059 0.19865,-0.0556 0.40037,-0.10365 0.6059,-0.12118 0.18666,-0.0159 0.37797,-0.006 0.55538,0.0543 0.17741,0.0602 0.34047,0.17376 0.4383,0.33352 0.10917,0.17827 0.12946,0.39702 0.12118,0.6059 -0.0128,0.32258 -0.0869,0.64062 -0.19389,0.94521 -0.15343,0.43688 -0.37338,0.84672 -0.58166,1.26027 -0.95831,1.90282 -1.68284,3.91644 -2.2782,5.96208 -0.44842,1.54078 -0.82719,3.12133 -0.82402,4.72603 0.003,1.38664 0.29239,2.76316 0.75132,4.07166 0.58052,1.65518 1.42987,3.20795 2.4236,4.65333 0.47644,0.69298 0.9872,1.36348 1.55111,1.98736 0.98205,1.08649 2.11629,2.02229 3.2234,2.98103 0.79107,0.68505 1.57099,1.3844 2.30243,2.13278 0.32021,0.32762 0.63648,0.67265 0.82402,1.09062 0.0646,0.14402 0.11329,0.29602 0.13345,0.45258 0.0202,0.15656 0.0112,0.31794 -0.0366,0.46839 -0.0822,0.25874 -0.28267,0.47712 -0.5332,0.58167 -0.20485,0.0855 -0.4324,0.0959 -0.65437,0.0969 -0.21834,9.6e-4 -0.43678,-0.006 -0.65437,-0.0242 -0.52325,-0.0435 -1.039,-0.15071 -1.55111,-0.26659 -2.37204,-0.53673 -4.69632,-1.2644 -7.0527,-1.86618 -2.22353,-0.56785 -4.47481,-1.02336 -6.73763,-1.40569 -0.98706,-0.16677 -1.98018,-0.32 -2.98104,-0.33931 -1.19172,-0.023 -2.38269,0.14484 -3.53846,0.43625 -2.65197,0.66865 -5.14943,2.01017 -7.07693,3.95048 -0.38268,0.38522 -0.74226,0.7926 -1.11486,1.18757 -0.57658,0.6112 -1.18443,1.19276 -1.81771,1.745 -0.56408,0.4919 -1.15343,0.96394 -1.8177,1.30875 -1.48906,0.77294 -3.28922,0.84727 -4.895691,0.36354 -0.711738,-0.21431 -1.409278,-0.54556 -1.914649,-1.09063 -0.441839,-0.47655 -0.712085,-1.09101 -0.872498,-1.72076 -0.15133,-0.59409 -0.21112,-1.20715 -0.266597,-1.8177 -0.09827,-1.08149 -0.184745,-2.16575 -0.37034,-3.23571 -0.191464,-1.1038 -0.487704,-2.18753 -0.839765,-3.25106 -0.629375,-1.90125 -1.440338,-3.74614 -2.473778,-5.46162 -0.907473,-1.50638 -2.003721,-2.92853 -3.417288,-3.97472 -0.547438,-0.40516 -1.144643,-0.75354 -1.795167,-0.95519 -0.701913,-0.21758 -1.445016,-0.25881 -2.179549,-0.28084 -0.891633,-0.0267 -1.789491,-0.028 -2.665965,-0.19389 -0.739392,-0.13994 -1.4565,-0.39696 -2.116442,-0.75857 z"
       id="path849"
       inkscape:path-effect="#path-effect851"
       inkscape:original-d="m 80.237731,121.77901 c -0.705744,-0.25312 -2.010534,-6.39773 -3.016197,-9.597 -1.005665,-3.19926 0.320164,-0.45673 0.479848,-0.6855 0.159687,-0.22876 3.382063,-1.71348 5.072698,-2.57062 1.690634,-0.85714 2.810814,0.52581 4.215823,0.78833 1.405009,0.26251 1.302713,0.89141 1.953673,1.33672 0.650959,0.44531 1.622615,1.27986 2.433523,1.9194 0.810911,0.63953 5.10126,1.62815 7.651491,2.44183 2.55023,0.81368 12.21524,-1.9063 18.32247,-2.85985 6.10723,-0.95355 1.64832,-0.67835 2.47208,-1.01792 0.82376,-0.33957 6.04312,-2.52028 9.06429,-3.78083 3.02117,-1.26054 1.11512,-0.40366 1.67229,-0.6059 0.55716,-0.20223 0.4042,-0.0805 0.6059,-0.12118 0.2017,-0.0406 0.66272,0.25879 0.99368,0.38778 0.33096,0.129 0.0811,0.4042 0.12118,0.6059 0.0401,0.2017 -0.12899,0.6304 -0.19389,0.94521 -0.0649,0.3148 -0.38751,0.84045 -0.58166,1.26027 -0.19416,0.41983 -1.51853,3.97498 -2.2782,5.96208 -0.75966,1.98709 -0.54908,3.15095 -0.82402,4.72603 -0.27494,1.57508 0.50114,2.71471 0.75132,4.07166 0.25017,1.35696 1.616,3.10248 2.4236,4.65333 0.80761,1.55084 1.03434,1.32517 1.55111,1.98736 0.51677,0.66218 2.1492,1.98762 3.2234,2.98103 1.0742,0.99342 1.53522,1.42212 2.30243,2.13278 0.76721,0.71066 0.54961,0.72734 0.82402,1.09062 0.27441,0.36328 0.0649,0.61425 0.0969,0.92097 0.032,0.30673 -0.3552,0.38804 -0.5332,0.58167 -0.17799,0.19362 -0.43598,0.0649 -0.65437,0.0969 -0.21839,0.032 -0.43598,-0.0159 -0.65437,-0.0242 -0.21839,-0.008 -1.03381,-0.17746 -1.55111,-0.26659 -0.5173,-0.0891 -4.70154,-1.24386 -7.0527,-1.86618 -2.35116,-0.62232 -4.49149,-0.93686 -6.73763,-1.40569 -2.24614,-0.46883 -1.98709,-0.22594 -2.98104,-0.33931 -0.99394,-0.11336 -2.35871,0.2911 -3.53846,0.43625 -1.17976,0.14516 -4.71769,2.63392 -7.07693,3.95048 -2.35925,1.31656 -0.74298,0.79198 -1.11486,1.18757 -0.37189,0.39559 -1.21154,1.1636 -1.81771,1.745 -0.60616,0.5814 -1.21154,0.87276 -1.8177,1.30875 -0.60617,0.43598 -3.26353,0.24262 -4.895691,0.36354 -1.632159,0.12091 -1.276167,-0.72682 -1.914649,-1.09063 -0.638482,-0.3638 -0.581401,-1.14691 -0.872498,-1.72076 -0.291097,-0.57385 -0.177467,-1.21154 -0.266597,-1.8177 -0.08913,-0.60617 -0.103479,-1.48237 -0.37034,-3.23571 -0.266862,-1.75334 0.965479,1.10284 -0.839765,-3.25106 -0.135216,-0.32612 -1.63333,-3.56286 -2.473778,-5.46162 -0.840449,-1.89875 -2.294084,-2.69802 -3.417288,-3.97472 -1.123201,-1.27669 -0.89817,-0.6237 -1.795167,-0.95519 -0.749657,-0.27704 -1.541067,-0.19979 -2.179549,-0.28084 -0.638479,-0.0811 -1.777044,-0.129 -2.665965,-0.19389 -0.888921,-0.0649 -1.410698,-0.50545 -2.116442,-0.75857 z"
       sodipodi:nodetypes="cssssssssssscssssssssssssssscsssssssssssssssssscscc" />
  </g>
</svg>
